<?xml version="1.0" standalone="no"?>
<!DOCTYPE svg PUBLIC "-//W3C//DTD SVG 20010904//EN"
 "http://www.w3.org/TR/2001/REC-SVG-20010904/DTD/svg10.dtd">
<svg version="1.0" xmlns="http://www.w3.org/2000/svg"
 width="153.000000pt" height="133.000000pt" viewBox="0 0 153.000000 133.000000"
 preserveAspectRatio="xMidYMid meet">
<metadata>
Created by potrace 1.14, written by Peter Selinger 2001-2017
</metadata>
<g transform="translate(0.000000,133.000000) scale(0.100000,-0.100000)"
fill="#000000" stroke="none">
<path d="M496 1314 c-12 -11 -16 -36 -16 -95 l0 -79 -126 0 c-69 0 -134 -5
-145 -11 -11 -6 -58 -88 -110 -191 l-89 -180 0 -181 c0 -203 7 -227 72 -267
l33 -20 18 35 c65 128 237 187 369 128 52 -24 119 -88 138 -133 l12 -30 158 0
157 0 31 49 c79 128 239 173 372 106 49 -25 114 -89 125 -124 20 -65 25 27 25
488 0 373 -3 500 -12 509 -9 9 -135 12 -504 12 -434 0 -494 -2 -508 -16z m-16
-409 l0 -145 -144 0 -145 0 45 133 c24 72 46 138 49 145 3 8 33 12 100 12 l95
0 0 -145z"/>
<path d="M326 365 c-108 -38 -156 -157 -106 -260 65 -135 264 -136 329 -2 24
50 27 113 7 160 -17 43 -76 93 -123 106 -48 14 -59 13 -107 -4z"/>
<path d="M1186 368 c-54 -15 -110 -74 -124 -131 -26 -103 29 -200 130 -227
138 -38 266 90 228 228 -27 101 -129 158 -234 130z"/>
</g>
</svg>
